<svg width="839"
     height="160"
     viewBox="0 0 839 160"
     fill="none"
     xmlns="http://www.w3.org/2000/svg">
    <path d="M57.9713 111.748C79.4347 70.2621 115.815 37.7114 159.964 21.2264V16.6857C159.964 7.4584 152.487 0 143.278 0H16.6857C7.4584 0 0 7.4584 0 16.6857V75.1858C22.4117 82.2065 42.2886 94.9715 57.9713 111.73"
          fill="#418FDE"/>
    <path d="M66.2684 121.504C75.1492 133.011 82.1882 145.977 86.9842 160H143.278C152.487 160 159.945 152.542 159.945 143.314V33.8636C118.897 50.3852 85.3977 81.8418 66.2502 121.486"
          fill="#509E2F"/>
    <path d="M0 87.6407V143.296C0 152.505 7.4584 159.982 16.6857 159.982H74.4746C61.6184 126.209 34.2466 99.5487 0 87.6407Z"
          fill="#509E2F"/>
    <path d="M279.991 118.113H258.035V105.767H275.924C277.839 105.767 278.587 105.019 278.587 103.105V99.6581C278.587 97.7433 277.839 96.9957 275.924 96.9957H258.035V85.2701H279.225C281.194 85.2701 281.96 84.5224 281.96 82.6077V79.1794C281.96 77.2646 281.194 76.517 279.225 76.517H251.361C249.391 76.517 248.625 77.2646 248.625 79.1794V124.222C248.625 126.136 249.391 126.884 251.361 126.884H279.991C281.942 126.884 282.653 126.155 282.653 124.222V120.775C282.653 118.824 281.924 118.113 279.991 118.113Z"
          fill="#509E2F"/>
    <path d="M327.422 76.4988H299.923C297.953 76.4988 297.187 77.2464 297.187 79.1612V94.1145C297.187 115.031 292.172 117.493 288.853 119.116C287.103 119.954 286.756 120.957 287.595 122.726L289.419 126.209C289.802 127.085 290.239 127.595 290.786 127.814C290.969 127.887 291.169 127.923 291.388 127.923C291.826 127.923 292.336 127.778 292.957 127.486C300.032 124.057 306.378 118.933 306.378 94.1145V85.2701H320.693V124.222C320.693 126.136 321.441 126.884 323.355 126.884H327.422C329.337 126.884 330.084 126.136 330.084 124.222V79.1794C330.084 77.2647 329.337 76.517 327.422 76.517"
          fill="#509E2F"/>
    <path d="M371.534 118.113H349.578V105.767H367.468C369.382 105.767 370.13 105.019 370.13 103.105V99.6581C370.13 97.7433 369.382 96.9957 367.468 96.9957H349.578V85.2701H370.768C372.738 85.2701 373.504 84.5224 373.504 82.6077V79.1794C373.504 77.2646 372.738 76.517 370.768 76.517H342.904C340.935 76.517 340.169 77.2646 340.169 79.1794V124.222C340.169 126.136 340.935 126.884 342.904 126.884H371.534C373.485 126.884 374.197 126.155 374.197 124.222V120.775C374.197 118.824 373.467 118.113 371.534 118.113Z"
          fill="#509E2F"/>
    <path d="M418.527 76.4988H414.534C412.619 76.4988 411.871 77.2464 411.871 79.1612V96.9775H391.666V79.1612C391.666 77.2464 390.919 76.4988 389.004 76.4988H385.01C383.041 76.4988 382.275 77.2464 382.275 79.1612V124.203C382.275 126.118 383.041 126.866 385.01 126.866H389.004C390.919 126.866 391.666 126.118 391.666 124.203V105.749H411.871V124.203C411.871 126.118 412.619 126.866 414.534 126.866H418.527C420.497 126.866 421.263 126.118 421.263 124.203V79.1612C421.263 77.2464 420.497 76.4988 418.527 76.4988Z"
          fill="#509E2F"/>
    <path d="M514.228 76.4988H494.789C484.778 76.4988 478.796 82.3707 478.796 92.2179C478.796 99.2205 481.878 104.235 487.477 106.424C486.784 107.135 486.164 108.065 485.562 109.287L478.414 124.094C477.976 125.024 477.903 125.735 478.213 126.228C478.486 126.665 479.034 126.884 479.854 126.884H483.921C487.021 126.884 488.115 126.574 488.936 124.605L494.26 112.678C495.956 108.867 497.543 107.937 502.357 107.937H507.481V124.222C507.481 126.136 508.211 126.884 510.144 126.884H514.21C516.125 126.884 516.873 126.136 516.873 124.222V79.1794C516.873 77.2647 516.125 76.517 514.21 76.517M507.481 85.2884V99.184H495.61C491.033 99.184 488.516 96.7222 488.516 92.2362C488.516 87.7502 491.033 85.2884 495.61 85.2884H507.481Z"
          fill="#509E2F"/>
    <path d="M621.272 75.441C608.525 75.441 600.921 82.3888 600.921 94.0415V109.341C600.921 120.976 608.525 127.942 621.272 127.942C634.019 127.942 641.55 120.994 641.55 109.341V94.0415C641.55 82.4071 633.964 75.441 621.272 75.441ZM610.331 93.9685C610.331 87.586 614.124 84.2124 621.272 84.2124C628.42 84.2124 632.232 87.6772 632.232 93.9685V109.414C632.232 115.705 628.347 119.17 621.272 119.17C614.197 119.17 610.331 115.797 610.331 109.414V93.9685Z"
          fill="#509E2F"/>
    <path d="M685.99 76.4988H658.491C656.522 76.4988 655.756 77.2464 655.756 79.1612V94.1145C655.756 115.031 650.741 117.493 647.422 119.116C646.51 119.553 646.018 119.991 645.817 120.574C645.635 121.14 645.726 121.796 646.182 122.726L648.005 126.209C648.388 127.085 648.826 127.595 649.373 127.814C649.556 127.887 649.756 127.923 649.975 127.923C650.413 127.923 650.905 127.778 651.543 127.486C658.619 124.057 664.965 118.933 664.965 94.1145V85.2701H679.28V124.222C679.28 126.136 680.027 126.884 681.942 126.884H686.009C687.923 126.884 688.671 126.136 688.671 124.222V79.1794C688.671 77.2647 687.923 76.517 686.009 76.517"
          fill="#509E2F"/>
    <path d="M735.811 76.4988H731.671C730.285 76.4988 729.647 76.9911 729.118 77.757L708.11 109.742L707.946 109.98V79.1612C707.946 77.2464 707.199 76.4988 705.284 76.4988H701.29C699.321 76.4988 698.555 77.2464 698.555 79.1612V124.203C698.555 126.118 699.321 126.866 701.29 126.866H705.357C706.67 126.866 707.381 126.501 707.983 125.553L729.027 93.5674L729.154 93.385V124.203C729.154 126.155 729.884 126.866 731.817 126.866H735.829C737.78 126.866 738.491 126.136 738.491 124.203V79.1612C738.491 77.21 737.762 76.4988 735.829 76.4988"
          fill="#509E2F"/>
    <path d="M784.482 76.4988H780.488C778.573 76.4988 777.826 77.2464 777.826 79.1612V96.9775H757.62V79.1612C757.62 77.2464 756.873 76.4988 754.958 76.4988H750.946C748.977 76.4988 748.211 77.2464 748.211 79.1612V124.203C748.211 126.118 748.977 126.866 750.946 126.866H754.958C756.873 126.866 757.62 126.118 757.62 124.203V105.749H777.826V124.203C777.826 126.118 778.573 126.866 780.488 126.866H784.482C786.451 126.866 787.217 126.118 787.217 124.203V79.1612C787.217 77.2464 786.451 76.4988 784.482 76.4988Z"
          fill="#509E2F"/>
    <path d="M454.762 78.5411C454.123 76.7905 453.139 76.4623 451.552 76.4623H447.832C446.227 76.4623 445.334 76.7905 444.623 78.6141L427.08 124.222C426.752 125.115 426.752 125.79 427.08 126.227C427.408 126.683 428.01 126.902 428.976 126.902H432.204C435.268 126.902 436.216 126.428 436.818 124.605L440.046 115.742H459.029L462.184 124.605C462.785 126.428 463.752 126.902 466.797 126.902H470.444C471.393 126.902 472.013 126.683 472.323 126.227C472.651 125.772 472.651 125.115 472.323 124.203L454.78 78.5229L454.762 78.5411ZM456.366 107.974H442.69L449.546 87.8596H449.71L456.385 107.974H456.366Z"
          fill="#509E2F"/>
    <path d="M838.021 124.185L820.479 78.5046C819.84 76.754 818.856 76.4258 817.269 76.4258H813.549C811.944 76.4258 811.051 76.754 810.34 78.5776L792.779 124.185C792.45 125.079 792.45 125.753 792.779 126.191C793.107 126.647 793.709 126.866 794.657 126.866H797.885C800.948 126.866 801.897 126.392 802.498 124.586L805.726 115.724H824.709L827.864 124.586C828.466 126.41 829.414 126.884 832.478 126.884H836.125C837.073 126.884 837.693 126.665 838.021 126.209C838.331 125.753 838.331 125.097 838.021 124.185ZM822.083 107.937H808.407L815.245 87.8231H815.409L822.083 107.937Z"
          fill="#509E2F"/>
    <path d="M594.137 118.113H590.764V79.1612C590.764 77.2464 589.998 76.4988 588.028 76.4988H560.109C558.158 76.4988 557.447 77.2282 557.447 79.1612V93.695C557.447 111.457 554.11 116.107 551.192 118.113H549.66C547.709 118.113 546.998 118.842 546.998 120.775V130.476C546.998 132.428 547.727 133.139 549.66 133.139H553.453C555.405 133.139 556.116 132.409 556.116 130.476V126.866H587.627V130.476C587.627 132.391 588.375 133.139 590.289 133.139H594.137C596.088 133.139 596.8 132.409 596.8 130.476V120.775C596.8 118.824 596.07 118.113 594.137 118.113ZM581.372 85.2701V118.113H562.006C565.106 112.97 566.492 105.384 566.492 93.6221V85.2701H581.372Z"
          fill="#509E2F"/>
    <path d="M234.201 100.315C237.757 98.181 239.489 94.7162 239.489 89.7561C239.489 80.4741 233.216 75.441 222.293 75.441C215.127 75.441 210.586 76.4987 205.753 79.2888C204.586 79.9635 204.222 81.4953 204.933 82.6624L206.702 86.0725C207.358 87.1484 208.726 87.5495 209.838 87.0025C213.485 85.2518 216.166 84.2124 221.728 84.2124C227.29 84.2124 229.934 86.0542 229.934 90.449C229.934 94.4609 227.6 96.7586 223.551 96.7586H214.78C212.829 96.7586 212.118 97.488 212.118 99.421V102.576C212.118 104.527 212.847 105.238 214.78 105.238H224.609C228.858 105.238 231.21 107.919 231.21 112.259C231.21 114.465 230.518 116.143 229.168 117.292C227.691 118.532 225.375 119.152 222.293 119.152C217.114 119.152 213.102 117.821 208.58 115.541C207.431 114.958 206.027 115.323 205.352 116.435L203.164 120.046C202.453 121.213 202.854 122.708 204.021 123.419C209.546 126.866 214.306 127.923 222.293 127.923C234.383 127.923 241.021 122.507 241.021 112.697C241.021 108.867 240.292 103.214 234.201 100.315Z"
          fill="#509E2F"/>
    <path d="M214.634 34.1737H211.169L204.057 53.9047L204.021 53.9959H207.613L209.401 48.8717H216.367L218.263 53.9412V53.9776H221.801L214.652 34.1919V34.1372L214.634 34.1737ZM212.865 37.5655L213.613 40.6291L215.163 45.5163H210.513L212.063 40.6838L212.865 37.5655Z"
          fill="#418FDE"/>
    <path d="M230.9 54.0141H234.238V37.4379H243.191V34.1737H230.9V54.0141Z"
          fill="#418FDE"/>
    <path d="M264.144 35.1037C263.105 34.4837 261.846 34.1737 260.388 34.1737H252.692V54.0141H255.993V47.194H260.406C261.865 47.194 263.105 46.884 264.144 46.3004C265.165 45.6987 265.95 44.8963 266.478 43.9298C267.007 42.9451 267.262 41.8874 267.262 40.7386C267.262 39.5897 267.007 38.5503 266.478 37.5473C265.95 36.5443 265.165 35.7237 264.126 35.1037M263.506 42.398C263.232 42.9086 262.831 43.3098 262.302 43.638C261.774 43.948 261.117 44.1122 260.369 44.1122H255.993V37.5473H260.369C261.482 37.5473 262.357 37.8756 262.977 38.5138C263.597 39.1521 263.925 39.918 263.925 40.7933C263.925 41.3586 263.779 41.8874 263.524 42.398"
          fill="#418FDE"/>
    <path d="M288.543 34.6296C287.322 34.1372 285.99 33.9001 284.623 33.9001C283.255 33.9001 281.906 34.1372 280.702 34.6296C279.498 35.1219 278.495 35.8514 277.73 36.8179C276.982 37.7844 276.599 38.9697 276.599 40.3373V47.814C276.599 49.1817 276.982 50.367 277.73 51.3335C278.477 52.3 279.48 53.0476 280.702 53.54C281.906 54.0324 283.219 54.2877 284.623 54.2877C286.027 54.2877 287.322 54.0324 288.543 53.54C289.765 53.0476 290.786 52.3 291.534 51.3335C292.282 50.367 292.665 49.1817 292.665 47.814V40.3373C292.665 38.9697 292.282 37.7844 291.534 36.8179C290.768 35.8514 289.765 35.1037 288.543 34.6296ZM284.623 50.9323C283.346 50.9323 282.234 50.6405 281.304 50.0934C280.392 49.5464 279.936 48.7805 279.936 47.7957V40.3921C279.936 39.3891 280.392 38.605 281.286 38.0944C282.197 37.5655 283.328 37.292 284.623 37.2738C285.917 37.2738 287.048 37.5473 287.978 38.0761C288.89 38.605 289.346 39.3891 289.346 40.4103V47.814C289.346 48.7805 288.872 49.5646 287.96 50.1117C287.03 50.677 285.917 50.9505 284.623 50.9505"
          fill="#418FDE"/>
    <path d="M303.15 54.0141H306.469V37.4379H314.93V54.0141H318.268V34.1737H303.15V54.0141Z"
          fill="#418FDE"/>
    <path d="M340.734 35.1037C339.695 34.4837 338.436 34.1737 336.978 34.1737H329.282V54.0141H332.583V47.194H336.996C338.455 47.194 339.713 46.884 340.734 46.3004C341.755 45.6987 342.539 44.8963 343.068 43.9298C343.597 42.9451 343.852 41.8692 343.852 40.7386C343.852 39.6079 343.579 38.5503 343.068 37.5473C342.539 36.5443 341.755 35.7237 340.716 35.1037M340.114 42.398C339.841 42.9086 339.439 43.328 338.911 43.638C338.382 43.948 337.725 44.1122 336.978 44.1122H332.601V37.5473H336.978C338.09 37.5473 338.965 37.8756 339.585 38.5138C340.205 39.1521 340.534 39.918 340.534 40.7933C340.534 41.3586 340.406 41.8874 340.132 42.398"
          fill="#418FDE"/>
    <path d="M365.133 34.6296C363.911 34.1372 362.58 33.9001 361.213 33.9001C359.845 33.9001 358.495 34.1372 357.292 34.6296C356.088 35.1219 355.085 35.8514 354.338 36.8179C353.572 37.7844 353.189 38.9697 353.189 40.3373V47.814C353.189 49.1817 353.572 50.367 354.338 51.3335C355.085 52.3 356.088 53.0476 357.292 53.54C358.495 54.0324 359.827 54.2877 361.213 54.2877C362.598 54.2877 363.911 54.0324 365.133 53.54C366.355 53.0476 367.376 52.3 368.124 51.3335C368.89 50.367 369.273 49.1817 369.273 47.814V40.3373C369.273 38.9697 368.89 37.7844 368.124 36.8179C367.376 35.8514 366.355 35.1037 365.133 34.6296ZM361.213 50.9323C359.936 50.9323 358.824 50.6405 357.894 50.0934C356.982 49.5464 356.526 48.7805 356.526 47.7957V40.3921C356.526 39.3709 356.964 38.6232 357.875 38.0944C358.787 37.5655 359.9 37.292 361.213 37.2738C362.507 37.2738 363.638 37.5473 364.55 38.0761C365.461 38.605 365.917 39.3891 365.917 40.4103V47.814C365.917 48.7805 365.443 49.5646 364.531 50.1117C363.601 50.677 362.489 50.9505 361.194 50.9505"
          fill="#418FDE"/>
    <path d="M388.803 46.8658L383.442 34.2284L383.424 34.1737H379.722V54.0141H383.059V44.9328L382.476 39.5532H382.64L384.263 44.2398L387.509 51.2423L387.527 51.297H390.153L393.399 44.2398L395.058 39.6262H395.204L394.602 44.8963V54.0141H397.958V34.1737H394.238L388.803 46.8658Z"
          fill="#418FDE"/>
    <path d="M429.323 34.1737H426.004V54.0141H429.323V34.1737Z"
          fill="#418FDE"/>
    <path d="M416.558 41.3768H412.327V34.1737H408.99V54.0141H416.704C418.783 54.0141 420.479 53.4671 421.737 52.3912C422.995 51.3153 423.634 49.7288 423.634 47.7228C423.634 45.5893 423.05 44.0027 421.865 42.9633C420.698 41.9239 418.929 41.395 416.576 41.395M419.385 50.1117C418.783 50.6223 417.889 50.8776 416.74 50.8776H412.327V44.2763H416.595C419.075 44.2763 420.278 45.3887 420.278 47.6499C420.278 48.7805 419.968 49.6011 419.366 50.0935"
          fill="#418FDE"/>
    <path d="M458.919 50.7682H452.956V34.1737H449.619V50.7682H443.674V34.1737H440.337V54.0141H462.238V34.1737H458.919V50.7682Z"
          fill="#418FDE"/>
    <path d="M476.043 41.2308C475.86 43.8933 475.696 45.7715 475.514 46.9751C475.332 48.1604 474.967 49.1087 474.42 49.8016C473.873 50.4763 473.034 50.8046 471.903 50.8046H471.757V54.0323H471.812C471.976 54.0323 472.104 54.0323 472.25 54.0323C472.56 54.0323 472.797 53.9594 473.07 53.9229C473.143 53.9229 473.216 53.9047 473.271 53.8864C473.946 53.8135 474.566 53.6494 475.094 53.4123C475.24 53.3394 475.386 53.2664 475.514 53.1935C475.733 53.0658 476.006 53.0111 476.189 52.847C477.246 52.0081 477.994 50.8046 478.432 49.291C478.869 47.7775 479.161 45.8445 479.307 43.5103L479.69 37.4196H485.361V53.9958H488.735V34.1554H476.48L476.006 41.1944L476.043 41.2308Z"
          fill="#418FDE"/>
    <path d="M499.804 54.0141H512.934V50.6588H503.178V45.7898H512.149V42.4162H503.178V37.5473H512.934V34.1737H499.804V54.0141Z"
          fill="#418FDE"/>
    <path d="M535.236 42.4527H526.61V34.1737H523.255V54.0141H526.61V45.7898H535.236V54.0141H538.609V34.1737H535.236V42.4527Z"
          fill="#418FDE"/>
    <path d="M561.605 42.4527H552.979V34.1737H549.624V54.0141H552.979V45.7898H561.605V54.0141H564.978V34.1737H561.605V42.4527Z"
          fill="#418FDE"/>
    <path d="M596.325 34.1737H593.007V54.0141H596.325V34.1737Z"
          fill="#418FDE"/>
    <path d="M583.561 41.3768H579.33V34.1737H575.993V54.0141H583.706C585.785 54.0141 587.481 53.4671 588.739 52.3912C589.998 51.3153 590.618 49.7288 590.618 47.7228C590.618 45.5893 590.034 44.0027 588.849 42.9633C587.682 41.9239 585.913 41.395 583.561 41.395M586.369 50.1117C585.767 50.6223 584.873 50.8776 583.725 50.8776H579.312V44.2763H583.579C586.059 44.2763 587.262 45.3887 587.262 47.6499C587.262 48.7805 586.952 49.6011 586.351 50.0935"
          fill="#418FDE"/>
    <path d="M611.644 31.4566C612.555 32.2407 613.686 32.6237 614.944 32.6237C616.203 32.6237 617.333 32.2225 618.263 31.4566C619.175 30.6725 619.704 29.5783 619.795 28.1742V28.1012H616.859V28.156C616.658 29.2683 616.038 29.8154 614.944 29.8154C613.85 29.8154 613.267 29.2683 613.03 28.1377V28.083H610.075V28.156C610.185 29.5601 610.695 30.6725 611.625 31.4384"
          fill="#418FDE"/>
    <path d="M611.899 46.4281L610.513 48.9629L610.677 46.4646V34.1737H607.34V54.0141H610.914L618.281 42.2339L619.613 39.8085L619.467 42.1974V54.0141H622.822V34.1737H619.412L611.899 46.4281Z"
          fill="#418FDE"/>
    <path d="M675.414 34.2831L675.487 34.1737H671.438L666.715 41.5227L662.011 34.2102L661.992 34.1737H657.926L664.655 44.1304L657.944 53.9047L657.871 54.0141H661.992L666.715 46.7563L671.402 53.9777L671.438 54.0141H675.523L668.739 44.1304L675.414 34.2831Z"
          fill="#418FDE"/>
    <path d="M695.127 34.6296C693.905 34.1372 692.574 33.9001 691.206 33.9001C689.838 33.9001 688.489 34.1372 687.285 34.6296C686.063 35.1219 685.079 35.8514 684.313 36.8179C683.565 37.7844 683.182 38.9697 683.182 40.3373V47.814C683.182 49.1817 683.565 50.367 684.313 51.3335C685.06 52.3 686.063 53.0476 687.285 53.54C688.489 54.0324 689.802 54.2877 691.206 54.2877C692.61 54.2877 693.905 54.0324 695.127 53.54C696.367 53.0476 697.37 52.3 698.117 51.3335C698.865 50.367 699.248 49.1817 699.248 47.814V40.3373C699.248 38.9697 698.865 37.7844 698.117 36.8179C697.37 35.8514 696.348 35.1037 695.127 34.6296ZM691.206 50.9323C689.929 50.9323 688.817 50.6405 687.887 50.0934C686.975 49.5464 686.519 48.7805 686.519 47.7957V40.3921C686.519 39.3891 686.975 38.605 687.887 38.0944C688.799 37.5655 689.911 37.292 691.206 37.2738C692.501 37.2738 693.631 37.5473 694.543 38.0761C695.455 38.605 695.911 39.3891 695.911 40.4103V47.814C695.911 48.7805 695.437 49.5646 694.525 50.1117C693.595 50.677 692.464 50.9505 691.188 50.9505"
          fill="#418FDE"/>
    <path d="M712.232 41.2308C712.067 43.8568 711.885 45.7715 711.721 46.9751C711.539 48.1604 711.174 49.0904 710.627 49.8016C710.098 50.4763 709.241 50.8046 708.11 50.8046H707.964V54.0323H708.019C708.165 54.0323 708.311 54.0323 708.457 54.0323C708.767 54.0323 709.004 53.9594 709.277 53.9229C709.35 53.9229 709.423 53.9047 709.478 53.8864C710.153 53.8135 710.773 53.6494 711.302 53.4123C711.447 53.3394 711.593 53.2664 711.721 53.1935C711.94 53.0658 712.213 53.0111 712.396 52.847C713.453 52.0081 714.219 50.8046 714.639 49.291C715.076 47.7775 715.368 45.8262 715.514 43.5103L715.897 37.4196H721.568V53.9958H724.942V34.1554H712.687L712.213 41.1944L712.232 41.2308Z"
          fill="#418FDE"/>
    <path d="M750.873 34.1919H738.892L738.436 41.2309C738.254 43.8933 738.072 45.8081 737.926 46.9569C737.762 48.0875 737.488 48.9811 737.069 49.6193C736.668 50.2576 736.011 50.6405 735.117 50.7864C734.899 50.8229 734.735 50.8411 734.607 50.8411H734.534V57.6613H737.926V54.0141H749.451V57.6613H752.824V50.8411H750.873V34.1737V34.1919ZM747.536 37.4379V50.8411H740.187C740.625 50.057 740.953 49.0723 741.19 47.887C741.427 46.6652 741.609 45.1881 741.719 43.5104L742.12 37.4197H747.518L747.536 37.4379Z"
          fill="#418FDE"/>
    <path d="M767.34 46.4281L765.954 48.9629L766.118 46.4646V34.1737H762.763V54.0141H766.355L773.722 42.2339L775.054 39.8085L774.908 42.1974V54.0141H778.263V34.1737H774.835L767.34 46.4281Z"
          fill="#418FDE"/>
    <path d="M801.277 42.4527H792.651V34.1737H789.278V54.0141H792.651V45.7898H801.277V54.0141H804.632V34.1737H801.277V42.4527Z"
          fill="#418FDE"/>
    <path d="M815.646 34.1737V54.0141H818.983V37.4379H827.937V34.1737H815.646Z"
          fill="#418FDE"/>
</svg>
